<?xml version="1.0" encoding="utf-8"?>
<!-- Generator: Adobe Illustrator 18.1.1, SVG Export Plug-In . SVG Version: 6.00 Build 0)  -->
<svg version="1.1" id="Layer_1" xmlns="http://www.w3.org/2000/svg" xmlns:xlink="http://www.w3.org/1999/xlink" x="0px" y="0px"
	 viewBox="0 0 169.9 48.5" style="enable-background:new 0 0 169.9 48.5;" xml:space="preserve">
<style type="text/css">
	.st0{fill:#93FF15;}
</style>
<path class="st0" d="M134,15.4H33c0,0-18.3-0.1-25.5,8.6c0,0,2.7,9.3,25.5,9.5c22.8,0.2,101-0.1,101-0.1l16,1.4l-13.1-5.4l21.2,0.9
	l-20.6-4.5l26.7-2.8l-28.2-1.7l22-3.5l-21.4,0.8l16.4-5.6L134,15.4z"/>
<path class="st0" d="M108.5,13.1c0,0,25.8-1.7,27-5.7l-25.1,2.8L108.5,13.1z"/>
<path class="st0" d="M119.8,36.1c0,0,22.6,1.5,23.6,4.9l-22-2.4L119.8,36.1z"/>
</svg>
